# xmcd
#
# Track frame offsets: 
#        150
#        12015
#        24020
#        39202
#        52672
#        67342
#        79417
#        91925
#        109132
#        127737
#        134847
#        145650
#        164622
#        176965
#        191182
#        202810
#        219547
#        236795
#        247812
#
# Disc length: 3723 seconds
#
# Revision: 3
# Processed by: cddbd v1.5.2PL0 Copyright (c) Steve Scherf et al.
# Submitted via: ExactAudioCopy v0.99pb4
#
DISCID=050e8913
DTITLE=Four Tops - Breaking Through
DYEAR=1999
DGENRE=Blues
TTITLE0=This Can't Be Love 
TTITLE1=On The Street Where You Live
TTITLE2=Gee Baby Ain't I Good To You
TTITLE3=Nice 'N' Easy 
TTITLE4=Maybe Today
TTITLE5=Stranger On The Shore
TTITLE6=Young And Foolish
TTITLE7=Discovered
TTITLE8=I Left My Heart In San Francisco
TTITLE9=Fascinating Rhythm
TTITLE10=End Of A Beautiful Friendship
TTITLE11=If My Heart Could Sing
TTITLE12=Can't Get Out Of This Mood
TTITLE13=When I'm Alone I Cry
TTITLE14=Until I Met You 
TTITLE15=I'm Falling For You
TTITLE16=Everyday I Have The Blues - Goin' To Chicago Blues 
TTITLE17=I Could Have Danced All Night
TTITLE18=I'm Falling For You (Live) - With Billy Eckstine
EXTD=YEAR: 1999
EXTT0=
EXTT1=
EXTT2=
EXTT3=
EXTT4=
EXTT5=
EXTT6=
EXTT7=
EXTT8=
EXTT9=
EXTT10=
EXTT11=
EXTT12=
EXTT13=
EXTT14=
EXTT15=
EXTT16=
EXTT17=
EXTT18=
PLAYORDER=
